<svg id="Layer_1" data-name="Layer 1" xmlns="http://www.w3.org/2000/svg" viewBox="0 0 124.12 106.84"><title>Artboard 1K44_logo</title><rect x="60.11" y="-58.01" width="6" height="122.03" transform="translate(60.11 66.11) rotate(-90)"/><rect width="6" height="50.69" transform="translate(6 50.69) rotate(-180)"/><rect x="118.12" width="6" height="106.84" transform="translate(242.25 106.84) rotate(-180)"/><path d="M21.48,59.83h7.1L12.26,75.2l16.28,18H21.76l-16-17.79H5.66V93.23H.21V59.83H5.66V74.74h.07Z"/><path d="M39.09,88.55v.14l5.2-.14H52V77.87h5.45v29H52V93.23H32.87v-4L46.72,59.83h5.87Z"/><path d="M68.28,88.55v.14l5.2-.14h7.7V77.87h5.45v29H81.19V93.23H62.06v-4L75.91,59.83h5.87Z"/><rect x="18.6" y="82.45" width="6" height="42.78" transform="translate(-82.24 125.43) rotate(-90)"/><rect x="106.23" y="88.94" width="6" height="29.79" transform="translate(5.39 213.06) rotate(-90)"/></svg>